<?xml version="1.0" encoding="UTF-8" standalone="no"?>
<!DOCTYPE svg PUBLIC "-//W3C//DTD SVG 1.1//EN"
 "http://www.w3.org/Graphics/SVG/1.1/DTD/svg11.dtd">
<!-- Generated by graphviz version 2.44.1 (20200629.0846)
 -->
<!-- Title: G Pages: 1 -->
<svg width="1126pt" height="276pt"
 viewBox="0.00 0.00 1126.02 276.00" xmlns="http://www.w3.org/2000/svg" xmlns:xlink="http://www.w3.org/1999/xlink">
<g id="graphJar" class="graph" transform="scale(1 1) rotate(0) translate(4 272)">
<title>G</title>
<polygon fill="white" stroke="transparent" points="-4,4 -4,-272 1122.02,-272 1122.02,4 -4,4"/>
<g id="graphJar" class="cluster">
<title>clusterA</title>
<defs>
<linearGradient id="l_0" gradientUnits="userSpaceOnUse" x1="544.32" y1="-34" x2="970.32" y2="-34" >
<stop offset="0" style="stop-color:aqua;stop-opacity:1.;"/>
<stop offset="1" style="stop-color:white;stop-opacity:1.;"/>
</linearGradient>
</defs>
<path fill="url(#l_0)" stroke="black" d="M556.32,-8C556.32,-8 958.32,-8 958.32,-8 964.32,-8 970.32,-14 970.32,-20 970.32,-20 970.32,-48 970.32,-48 970.32,-54 964.32,-60 958.32,-60 958.32,-60 556.32,-60 556.32,-60 550.32,-60 544.32,-54 544.32,-48 544.32,-48 544.32,-20 544.32,-20 544.32,-14 550.32,-8 556.32,-8"/>
</g>
<!-- AppController -->
<g id="graphJar_node1" class="node">
<title>AppController</title>
<polygon fill="none" stroke="red" points="138.21,-268 36.43,-268 0.18,-232 174.46,-232 138.21,-268"/>
<text text-anchor="middle" x="87.32" y="-246.3" font-family="Times,serif" font-size="14.00">AppController</text>
</g>
<!-- AppService -->
<g id="graphJar_node2" class="node">
<title>AppService</title>
<ellipse fill="none" stroke="red" cx="87.32" cy="-178" rx="51.99" ry="18"/>
<text text-anchor="middle" x="87.32" y="-174.3" font-family="Times,serif" font-size="14.00">AppService</text>
</g>
<!-- AppController&#45;&gt;AppService -->
<g id="graphJar_edge1" class="edge">
<title>AppController&#45;&gt;AppService</title>
<path fill="none" stroke="black" d="M87.32,-221.67C87.32,-213.05 87.32,-203.79 87.32,-196.1"/>
<polygon fill="black" stroke="black" points="83.82,-221.7 87.32,-231.7 90.82,-221.7 83.82,-221.7"/>
</g>
<!-- CatController -->
<g id="graphJar_node3" class="node">
<title>CatController</title>
<polygon fill="none" stroke="red" points="325.25,-268 227.39,-268 192.53,-232 360.11,-232 325.25,-268"/>
<text text-anchor="middle" x="276.32" y="-246.3" font-family="Times,serif" font-size="14.00">CatController</text>
</g>
<!-- CatsService -->
<g id="graphJar_node4" class="node">
<title>CatsService</title>
<ellipse fill="none" stroke="red" cx="276.32" cy="-178" rx="52.79" ry="18"/>
<text text-anchor="middle" x="276.32" y="-174.3" font-family="Times,serif" font-size="14.00">CatsService</text>
</g>
<!-- CatController&#45;&gt;CatsService -->
<g id="graphJar_edge2" class="edge">
<title>CatController&#45;&gt;CatsService</title>
<path fill="none" stroke="black" d="M276.32,-221.67C276.32,-213.05 276.32,-203.79 276.32,-196.1"/>
<polygon fill="black" stroke="black" points="272.82,-221.7 276.32,-231.7 279.82,-221.7 272.82,-221.7"/>
</g>
<!-- Cat -->
<g id="graphJar_node15" class="node">
<title>Cat</title>
<ellipse fill="none" stroke="black" cx="276.32" cy="-106" rx="27" ry="18"/>
<text text-anchor="middle" x="276.32" y="-102.3" font-family="Times,serif" font-size="14.00">Cat</text>
</g>
<!-- CatsService&#45;&gt;Cat -->
<g id="graphJar_edge3" class="edge">
<title>CatsService&#45;&gt;Cat</title>
<path fill="none" stroke="black" d="M276.32,-149.67C276.32,-141.05 276.32,-131.79 276.32,-124.1"/>
<polygon fill="black" stroke="black" points="272.82,-149.7 276.32,-159.7 279.82,-149.7 272.82,-149.7"/>
</g>
<!-- ContactoController -->
<g id="graphJar_node5" class="node">
<title>ContactoController</title>
<polygon fill="none" stroke="red" points="842.4,-268 712.24,-268 665.88,-232 888.76,-232 842.4,-268"/>
<text text-anchor="middle" x="777.32" y="-246.3" font-family="Times,serif" font-size="14.00">ContactoController</text>
</g>
<!-- ContactoService -->
<g id="graphJar_node8" class="node">
<title>ContactoService</title>
<ellipse fill="none" stroke="green" cx="777.32" cy="-178" rx="68.79" ry="18"/>
<text text-anchor="middle" x="777.32" y="-174.3" font-family="Times,serif" font-size="14.00">ContactoService</text>
</g>
<!-- ContactoController&#45;&gt;ContactoService -->
<g id="graphJar_edge4" class="edge">
<title>ContactoController&#45;&gt;ContactoService</title>
<path fill="none" stroke="black" d="M777.32,-221.67C777.32,-213.05 777.32,-203.79 777.32,-196.1"/>
<polygon fill="black" stroke="black" points="773.82,-221.7 777.32,-231.7 780.82,-221.7 773.82,-221.7"/>
</g>
<!-- ContactoBaseController -->
<g id="graphJar_node6" class="node">
<title>ContactoBaseController</title>
<polygon fill="none" stroke="red" points="592.3,-268 434.34,-268 378.09,-232 648.55,-232 592.3,-268"/>
<text text-anchor="middle" x="513.32" y="-246.3" font-family="Times,serif" font-size="14.00">ContactoBaseController</text>
</g>
<!-- ContactoBaseService -->
<g id="graphJar_node9" class="node">
<title>ContactoBaseService</title>
<ellipse fill="none" stroke="green" cx="551.32" cy="-106" rx="85.59" ry="18"/>
<text text-anchor="middle" x="551.32" y="-102.3" font-family="Times,serif" font-size="14.00">ContactoBaseService</text>
</g>
<!-- ContactoBaseController&#45;&gt;ContactoBaseService -->
<g id="graphJar_edge5" class="edge">
<title>ContactoBaseController&#45;&gt;ContactoBaseService</title>
<path fill="none" stroke="black" d="M520.53,-222.06C528.23,-193.28 540.21,-148.53 546.72,-124.19"/>
<polygon fill="black" stroke="black" points="517.11,-221.31 517.9,-231.87 523.87,-223.12 517.11,-221.31"/>
</g>
<!-- ContactoEntity -->
<g id="graphJar_node7" class="node">
<title>ContactoEntity</title>
<path fill="none" stroke="red" d="M748.32,-48.73C748.32,-50.53 726.36,-52 699.32,-52 672.28,-52 650.32,-50.53 650.32,-48.73 650.32,-48.73 650.32,-19.27 650.32,-19.27 650.32,-17.47 672.28,-16 699.32,-16 726.36,-16 748.32,-17.47 748.32,-19.27 748.32,-19.27 748.32,-48.73 748.32,-48.73"/>
<path fill="none" stroke="red" d="M748.32,-48.73C748.32,-46.92 726.36,-45.45 699.32,-45.45 672.28,-45.45 650.32,-46.92 650.32,-48.73"/>
<text text-anchor="middle" x="699.32" y="-30.3" font-family="Times,serif" font-size="14.00">ContactoEntity</text>
</g>
<!-- ContactoService&#45;&gt;ContactoEntity -->
<g id="graphJar_edge6" class="edge">
<title>ContactoService&#45;&gt;ContactoEntity</title>
<path fill="none" stroke="black" d="M763.1,-151.12C747.34,-122.42 722.35,-76.93 708.81,-52.27"/>
<polygon fill="black" stroke="black" points="760.18,-153.07 768.07,-160.15 766.32,-149.7 760.18,-153.07"/>
</g>
<!-- UsuarioService -->
<g id="graphJar_node13" class="node">
<title>UsuarioService</title>
<ellipse fill="none" stroke="green" cx="916.32" cy="-106" rx="64.99" ry="18"/>
<text text-anchor="middle" x="916.32" y="-102.3" font-family="Times,serif" font-size="14.00">UsuarioService</text>
</g>
<!-- ContactoService&#45;&gt;UsuarioService -->
<g id="graphJar_edge7" class="edge">
<title>ContactoService&#45;&gt;UsuarioService</title>
<path fill="none" stroke="black" d="M816.6,-157.22C838.69,-146.09 865.83,-132.43 886.22,-122.16"/>
<polygon fill="black" stroke="black" points="814.84,-154.19 807.48,-161.81 817.99,-160.44 814.84,-154.19"/>
</g>
<!-- Connection -->
<g id="graphJar_node14" class="node">
<title>Connection</title>
<path fill="none" stroke="red" d="M631.82,-48.73C631.82,-50.53 614.12,-52 592.32,-52 570.52,-52 552.82,-50.53 552.82,-48.73 552.82,-48.73 552.82,-19.27 552.82,-19.27 552.82,-17.47 570.52,-16 592.32,-16 614.12,-16 631.82,-17.47 631.82,-19.27 631.82,-19.27 631.82,-48.73 631.82,-48.73"/>
<path fill="none" stroke="red" d="M631.82,-48.73C631.82,-46.92 614.12,-45.45 592.32,-45.45 570.52,-45.45 552.82,-46.92 552.82,-48.73"/>
<text text-anchor="middle" x="592.32" y="-30.3" font-family="Times,serif" font-size="14.00">Connection</text>
</g>
<!-- ContactoBaseService&#45;&gt;Connection -->
<g id="graphJar_edge8" class="edge">
<title>ContactoBaseService&#45;&gt;Connection</title>
<path fill="none" stroke="black" d="M566.3,-79.42C571.59,-70.39 577.41,-60.46 582.2,-52.28"/>
<polygon fill="black" stroke="black" points="563.28,-77.66 561.24,-88.05 569.32,-81.2 563.28,-77.66"/>
</g>
<!-- EstadoEntity -->
<g id="graphJar_node10" class="node">
<title>EstadoEntity</title>
<path fill="none" stroke="red" d="M852.32,-48.73C852.32,-50.53 833.05,-52 809.32,-52 785.59,-52 766.32,-50.53 766.32,-48.73 766.32,-48.73 766.32,-19.27 766.32,-19.27 766.32,-17.47 785.59,-16 809.32,-16 833.05,-16 852.32,-17.47 852.32,-19.27 852.32,-19.27 852.32,-48.73 852.32,-48.73"/>
<path fill="none" stroke="red" d="M852.32,-48.73C852.32,-46.92 833.05,-45.45 809.32,-45.45 785.59,-45.45 766.32,-46.92 766.32,-48.73"/>
<text text-anchor="middle" x="809.32" y="-30.3" font-family="Times,serif" font-size="14.00">EstadoEntity</text>
</g>
<!-- UsuarioController -->
<g id="graphJar_node11" class="node">
<title>UsuarioController</title>
<polygon fill="none" stroke="red" points="1074.17,-268 950.47,-268 906.41,-232 1118.23,-232 1074.17,-268"/>
<text text-anchor="middle" x="1012.32" y="-246.3" font-family="Times,serif" font-size="14.00">UsuarioController</text>
</g>
<!-- UsuarioController&#45;&gt;UsuarioService -->
<g id="graphJar_edge9" class="edge">
<title>UsuarioController&#45;&gt;UsuarioService</title>
<path fill="none" stroke="black" d="M995.09,-223.51C975.57,-194.63 944.31,-148.4 927.64,-123.75"/>
<polygon fill="black" stroke="black" points="992.24,-225.55 1000.74,-231.87 998.04,-221.63 992.24,-225.55"/>
</g>
<!-- UsuarioEntity -->
<g id="graphJar_node12" class="node">
<title>UsuarioEntity</title>
<path fill="none" stroke="red" d="M962.32,-48.73C962.32,-50.53 941.7,-52 916.32,-52 890.94,-52 870.32,-50.53 870.32,-48.73 870.32,-48.73 870.32,-19.27 870.32,-19.27 870.32,-17.47 890.94,-16 916.32,-16 941.7,-16 962.32,-17.47 962.32,-19.27 962.32,-19.27 962.32,-48.73 962.32,-48.73"/>
<path fill="none" stroke="red" d="M962.32,-48.73C962.32,-46.92 941.7,-45.45 916.32,-45.45 890.94,-45.45 870.32,-46.92 870.32,-48.73"/>
<text text-anchor="middle" x="916.32" y="-30.3" font-family="Times,serif" font-size="14.00">UsuarioEntity</text>
</g>
<!-- UsuarioService&#45;&gt;UsuarioEntity -->
<g id="graphJar_edge10" class="edge">
<title>UsuarioService&#45;&gt;UsuarioEntity</title>
<path fill="none" stroke="black" d="M916.32,-77.67C916.32,-69.05 916.32,-59.79 916.32,-52.1"/>
<polygon fill="black" stroke="black" points="912.82,-77.7 916.32,-87.7 919.82,-77.7 912.82,-77.7"/>
</g>
</g>
</svg>
